{
    "asset": {
        "generator": "COLLADA2GLTF",
        "version": "2.0"
    },
    "scenes": [
        {
            "nodes": [
                0
            ]
        }
    ],
    "scene": 0,
    "nodes": [
        {
            "children": [
                3,
                2,
                1
            ],
            "matrix": [
                1.0,
                0.0,
                0.0,
                0.0,
                0.0,
                0.0,
                -1.0,
                0.0,
                0.0,
                1.0,
                0.0,
                0.0,
                0.0,
                0.0,
                0.0,
                1.0
            ],
            "name": "Z_UP"
        },
        {
            "mesh": 0,
            "name": "link_4"
        },
        {
            "matrix": [
                0.6859207153320313,
                0.7276763319969177,
                -4.011329934883179e-9,
                0.0,
                -0.3240134119987488,
                0.30542081594467165,
                0.8953956365585327,
                0.0,
                0.6515582203865051,
                -0.6141704320907593,
                0.44527140259742739,
                0.0,
                7.4811320304870609,
                -6.507639884948731,
                5.34366512298584,
                1.0
            ],
            "camera": 0,
            "name": "Camera_001"
        },
        {
            "matrix": [
                0.6859207153320313,
                0.7276763319969177,
                0.0,
                0.0,
                -0.32401350140571597,
                0.30542081594467165,
                0.8953956365585327,
                0.0,
                0.6515582203865051,
                -0.6141704320907593,
                0.44527140259742739,
                0.0,
                7.4811320304870609,
                -6.507639884948731,
                5.34366512298584,
                1.0
            ],
            "camera": 1,
            "name": "Camera"
        }
    ],
    "cameras": [
        {
            "perspective": {
                "yfov": 0.4823747575283051,
                "zfar": 100.0,
                "znear": 0.10000000149011612
            },
            "type": "perspective",
            "name": "Camera.001"
        },
        {
            "perspective": {
                "yfov": 0.4823747575283051,
                "zfar": 100.0,
                "znear": 0.10000000149011612
            },
            "type": "perspective",
            "name": "Camera"
        }
    ],
    "meshes": [
        {
            "primitives": [
                {
                    "attributes": {
                        "NORMAL": 1,
                        "POSITION": 2
                    },
                    "indices": 0,
                    "mode": 4,
                    "material": 0
                }
            ],
            "name": "link 4.001"
        }
    ],
    "accessors": [
        {
            "bufferView": 0,
            "byteOffset": 0,
            "componentType": 5123,
            "count": 35172,
            "max": [
                34551
            ],
            "min": [
                0
            ],
            "type": "SCALAR"
        },
        {
            "bufferView": 1,
            "byteOffset": 0,
            "componentType": 5126,
            "count": 34552,
            "max": [
                1.0,
                1.0,
                1.0
            ],
            "min": [
                -1.0,
                -1.0,
                -1.0
            ],
            "type": "VEC3"
        },
        {
            "bufferView": 1,
            "byteOffset": 414624,
            "componentType": 5126,
            "count": 34552,
            "max": [
                0.40784621238708498,
                0.06887561082839966,
                0.07300000637769699
            ],
            "min": [
                0.1069997027516365,
                -0.06503968685865402,
                -0.05500512942671776
            ],
            "type": "VEC3"
        }
    ],
    "materials": [
        {
            "pbrMetallicRoughness": {
                "baseColorFactor": [
                    0.800000011920929,
                    0.4000000059604645,
                    0.20000000298023225,
                    1.0
                ],
                "metallicFactor": 0.0
            },
            "emissiveFactor": [
                0.0,
                0.0,
                0.0
            ],
            "name": "Material_001-effect"
        }
    ],
    "bufferViews": [
        {
            "buffer": 0,
            "byteOffset": 829248,
            "byteLength": 70344,
            "target": 34963
        },
        {
            "buffer": 0,
            "byteOffset": 0,
            "byteLength": 829248,
            "byteStride": 12,
            "target": 34962
        }
    ],
    "buffers": [
        {
            "byteLength": 899592,
            "uri": "data:application/octet-stream;base64,"
        }
    ]
}
